HIERARCHY
ROOT hips
{
  OFFSET 0 10.6860622 2.3727825e-15
  CHANNELS 6 Xposition Yposition Zposition Yrotation Xrotation Zrotation
  JOINT leftUpperLeg
  {
    OFFSET 0.6642549969 -0.9402397400000004 0
    CHANNELS 3 Yrotation Xrotation Zrotation
    JOINT leftLowerLeg
    {
      OFFSET 0 -3.997221335632195 0
      CHANNELS 3 Yrotation Xrotation Zrotation
      JOINT leftFoot
      {
        OFFSET -0.13777839790000004 -4.6145792000000005 -0.22186036399999998
        CHANNELS 3 Yrotation Xrotation Zrotation
        JOINT leftToes
        {
          OFFSET -0.03777410834999995 -0.9130806927000008 0.85230013
          CHANNELS 3 Yrotation Xrotation Zrotation
          End Site
          {
            OFFSET -0.03777410834999995 -0.9130806927000008 0.85230013
          }
        }
      }
    }
  }
  JOINT rightUpperLeg
  {
    OFFSET -0.6642778626 -0.9402397400000004 0
    CHANNELS 3 Yrotation Xrotation Zrotation
    JOINT rightLowerLeg
    {
      OFFSET 0 -3.997221452859387 0
      CHANNELS 3 Yrotation Xrotation Zrotation
      JOINT rightFoot
      {
        OFFSET 0.1377926176 -4.6145792000000005 -0.22185782299999995
        CHANNELS 3 Yrotation Xrotation Zrotation
        JOINT rightToes
        {
          OFFSET 0.037780746850000047 -0.9130806927000008 0.85230167
          CHANNELS 3 Yrotation Xrotation Zrotation
          End Site
          {
            OFFSET 0.037780746850000047 -0.9130806927000008 0.85230167
          }
        }
      }
    }
  }
  JOINT spine
  {
    OFFSET 0 0.13988381660000015 0
    CHANNELS 3 Yrotation Xrotation Zrotation
    JOINT chest
    {
      OFFSET 0 0.6191039003973773 0
      CHANNELS 3 Yrotation Xrotation Zrotation
      JOINT upperChest
      {
        OFFSET 0 0.9855186130586943 0
        CHANNELS 3 Yrotation Xrotation Zrotation
        JOINT leftShoulder
        {
          OFFSET 0.1807663869 1.5087829790000005 0
          CHANNELS 3 Yrotation Xrotation Zrotation
          JOINT leftUpperArm
          {
            OFFSET 0.5985063006419806 0 0
            CHANNELS 3 Yrotation Xrotation Zrotation
            JOINT leftLowerArm
            {
              OFFSET 2.2993332369501065 0 0
              CHANNELS 3 Yrotation Xrotation Zrotation
              JOINT leftHand
              {
                OFFSET 2.395047042602395 0 0
                CHANNELS 3 Yrotation Xrotation Zrotation
                JOINT leftIndexProximal
                {
                  OFFSET 0.5766295810000004 0.04556643899499946 0.17265095988184
                  CHANNELS 3 Yrotation Xrotation Zrotation
                  JOINT leftIndexIntermediate
                  {
                    OFFSET 0.2957229000000008 -0.019352197700001517 -0.007932640616999987
                    CHANNELS 3 Yrotation Xrotation Zrotation
                    JOINT leftIndexDistal
                    {
                      OFFSET 0.19008243099999922 -0.012484908149998475 -0.002786250786000012
                      CHANNELS 3 Yrotation Xrotation Zrotation
                      End Site
                      {
                        OFFSET 0.19008243099999922 -0.012484908149998475 -0.002786250786000012
                      }
                    }
                  }
                }
                JOINT leftMiddleProximal
                {
                  OFFSET 0.5834975091000001 0.0524350405149987 0.02204081888183999
                  CHANNELS 3 Yrotation Xrotation Zrotation
                  JOINT leftMiddleIntermediate
                  {
                    OFFSET 0.33880573540000003 -0.019871473270000717 -0.00000971183179999946
                    CHANNELS 3 Yrotation Xrotation Zrotation
                    JOINT leftMiddleDistal
                    {
                      OFFSET 0.20676022730000088 -0.012221336379999448 0.0001471936708000235
                      CHANNELS 3 Yrotation Xrotation Zrotation
                      End Site
                      {
                        OFFSET 0.20676022730000088 -0.012221336379999448 0.0001471936708000235
                      }
                    }
                  }
                }
                JOINT leftLittleProximal
                {
                  OFFSET 0.5344154683999995 -0.012880921405001189 -0.24414037221816004
                  CHANNELS 3 Yrotation Xrotation Zrotation
                  JOINT leftLittleIntermediate
                  {
                    OFFSET 0.21758961730000093 -0.011650919939999227 0.011893592810000034
                    CHANNELS 3 Yrotation Xrotation Zrotation
                    JOINT leftLittleDistal
                    {
                      OFFSET 0.1475273964999999 -0.008152365682999818 0.006001092492999946
                      CHANNELS 3 Yrotation Xrotation Zrotation
                      End Site
                      {
                        OFFSET 0.1475273964999999 -0.008152365682999818 0.006001092492999946
                      }
                    }
                  }
                }
                JOINT leftRingProximal
                {
                  OFFSET 0.5799399463000003 0.026911854694997794 -0.12150566991816003
                  CHANNELS 3 Yrotation Xrotation Zrotation
                  JOINT leftRingIntermediate
                  {
                    OFFSET 0.26167887460000006 -0.013480186499999602 0.010996293000000053
                    CHANNELS 3 Yrotation Xrotation Zrotation
                    JOINT leftRingDistal
                    {
                      OFFSET 0.17667108799999987 -0.008990287899999228 0.0055541023999999065
                      CHANNELS 3 Yrotation Xrotation Zrotation
                      End Site
                      {
                        OFFSET 0.17667108799999987 -0.008990287899999228 0.0055541023999999065
                      }
                    }
                  }
                }
                JOINT leftThumbProximal
                {
                  OFFSET 0.11018806699999972 -0.09448718900500053 0.17047963138184
                  CHANNELS 3 Yrotation Xrotation Zrotation
                  JOINT leftThumbIntermediate
                  {
                    OFFSET 0.31062601459999983 -0.08126270900000132 0.15443142000000007
                    CHANNELS 3 Yrotation Xrotation Zrotation
                    JOINT leftThumbDistal
                    {
                      OFFSET 0.21627175790000086 -0.08833193599999878 0.018771167799999988
                      CHANNELS 3 Yrotation Xrotation Zrotation
                      End Site
                      {
                        OFFSET 0.21627175790000086 -0.08833193599999878 0.018771167799999988
                      }
                    }
                  }
                }
              }
            }
          }
        }
        JOINT neck
        {
          OFFSET 0 1.5463305265074576 0
          CHANNELS 3 Yrotation Xrotation Zrotation
          JOINT head
          {
            OFFSET 0 0.8456443600000344 0
            CHANNELS 3 Yrotation Xrotation Zrotation
            JOINT leftEye
            {
              OFFSET 0.30408573140000006 0.5104519199999995 0.1276382305
              CHANNELS 3 Yrotation Xrotation Zrotation
              End Site
              {
                OFFSET 0.30408573140000006 0.5104519199999995 0.1276382305
              }
            }
            JOINT rightEye
            {
              OFFSET -0.30409491089999996 0.5104519199999995 0.1276379445
              CHANNELS 3 Yrotation Xrotation Zrotation
              End Site
              {
                OFFSET -0.30409491089999996 0.5104519199999995 0.1276379445
              }
            }
            JOINT jaw
            {
              OFFSET -3.155239131000001e-7 -0.11984121820000082 0.60178107
              CHANNELS 3 Yrotation Xrotation Zrotation
              End Site
              {
                OFFSET -3.155239131000001e-7 -0.11984121820000082 0.60178107
              }
            }
          }
        }
        JOINT rightShoulder
        {
          OFFSET -0.1807303465 1.5087829790000005 0
          CHANNELS 3 Yrotation Xrotation Zrotation
          JOINT rightUpperArm
          {
            OFFSET -0.5985063796536958 0 0
            CHANNELS 3 Yrotation Xrotation Zrotation
            JOINT rightLowerArm
            {
              OFFSET -2.2993322059002854 0 0
              CHANNELS 3 Yrotation Xrotation Zrotation
              JOINT rightHand
              {
                OFFSET -2.395045314457259 0 0
                CHANNELS 3 Yrotation Xrotation Zrotation
                JOINT rightIndexProximal
                {
                  OFFSET -0.5764487688300002 0.0441371204405987 0.17361932004999997
                  CHANNELS 3 Yrotation Xrotation Zrotation
                  JOINT rightIndexIntermediate
                  {
                    OFFSET -0.29573011380000047 -0.01934826376999843 -0.007698921482999974
                    CHANNELS 3 Yrotation Xrotation Zrotation
                    JOINT rightIndexDistal
                    {
                      OFFSET -0.19008373999999884 -0.012503266380000655 -0.0026365778999999897
                      CHANNELS 3 Yrotation Xrotation Zrotation
                      End Site
                      {
                        OFFSET -0.19008373999999884 -0.012503266380000655 -0.0026365778999999897
                      }
                    }
                  }
                }
                JOINT rightMiddleProximal
                {
                  OFFSET -0.5834852037300005 0.05211639405060153 0.02307162440000001
                  CHANNELS 3 Yrotation Xrotation Zrotation
                  JOINT rightMiddleIntermediate
                  {
                    OFFSET -0.33880114510000003 -0.019952774050000954 0.0002455003561999819
                    CHANNELS 3 Yrotation Xrotation Zrotation
                    JOINT rightMiddleDistal
                    {
                      OFFSET -0.20675694929999955 -0.012273788999999091 0.00030209124000002766
                      CHANNELS 3 Yrotation Xrotation Zrotation
                      End Site
                      {
                        OFFSET -0.20675694929999955 -0.012273788999999091 0.00030209124000002766
                      }
                    }
                  }
                }
                JOINT rightLittleProximal
                {
                  OFFSET -0.5346811737299992 -0.011214256288399227 -0.24363941305000003
                  CHANNELS 3 Yrotation Xrotation Zrotation
                  JOINT rightLittleIntermediate
                  {
                    OFFSET -0.21757715980000092 -0.011771559690000988 0.01201554387
                    CHANNELS 3 Yrotation Xrotation Zrotation
                    JOINT rightLittleDistal
                    {
                      OFFSET -0.1475201849000004 -0.00822055339600003 0.006082065407000015
                      CHANNELS 3 Yrotation Xrotation Zrotation
                      End Site
                      {
                        OFFSET -0.1475201849000004 -0.00822055339600003 0.006082065407000015
                      }
                    }
                  }
                }
                JOINT rightRingProximal
                {
                  OFFSET -0.5800810755299999 0.027657985680600072 -0.12066365025000003
                  CHANNELS 3 Yrotation Xrotation Zrotation
                  JOINT rightRingIntermediate
                  {
                    OFFSET -0.26166445029999974 -0.013623118409999302 0.011164098990000045
                    CHANNELS 3 Yrotation Xrotation Zrotation
                    JOINT rightRingDistal
                    {
                      OFFSET -0.17666387530000027 -0.009072900100000503 0.005668185599999959
                      CHANNELS 3 Yrotation Xrotation Zrotation
                      End Site
                      {
                        OFFSET -0.17666387530000027 -0.009072900100000503 0.005668185599999959
                      }
                    }
                  }
                }
                JOINT rightThumbProximal
                {
                  OFFSET -0.10997596379000074 -0.09577489355940072 0.16989765924999997
                  CHANNELS 3 Yrotation Xrotation Zrotation
                  JOINT rightThumbIntermediate
                  {
                    OFFSET -0.31036620999999986 -0.08229339117999834 0.15440884469999996
                    CHANNELS 3 Yrotation Xrotation Zrotation
                    JOINT rightThumbDistal
                    {
                      OFFSET -0.21631306399999906 -0.08825326400000111 0.018656797720000014
                      CHANNELS 3 Yrotation Xrotation Zrotation
                      End Site
                      {
                        OFFSET -0.21631306399999906 -0.08825326400000111 0.018656797720000014
                      }
                    }
                  }
                }
              }
            }
          }
        }
      }
    }
  }
}
MOTION
Frames: 6
Frame Time: 0.03333333333333333
5.366740723532839 0.04272670763057052 3.1771584625153393 0 20.023070856558757 0 -8.7478494144824 -28.071751668504938 5.028270127313977 2.591005447242166 7.474356426818326 -6.337317652782258 18.804991842683727 -2.7605456645677684 -7.878295897099109 0 0 0 -11.77587078838187 -20.184286259024937 7.845940459455826 0.04752923941574297 -4.4696966154039 -0.7015694393534856 -18.384365478472173 -0.9684554144841959 7.816486439366595 0 0 0 -0.07549181798324192 6.051442408136882 -0.5543488946364354 -0.8188343784577846 -17.23595761399038 -0.4469507648997173 0 0 0 13.508842293461566 22.81735807652841 -18.58705098778461 2.6097388387972207 3.496927188230743 -59.891961972318256 6.612611669807849 2.636218085255006 -6.9563274083499955 -10.557664439589992 4.586608061727208 -6.787743804202116 0 0 0 0 0 0 0 0 0 0 0 0 0 0 0 0 0 0 0 0 0 0 0 0 0 0 0 0 0 0 0 0 0 0 0 0 0 0 0 0 0 0 0 0 0 -0.0035878431509577097 19.682440831151098 19.997669459345648 -0.0027389977441827345 8.871383611408184 -10.002894150534454 0 0 0 0 0 0 0 0 0 -14.167961213576438 21.9388327401403 24.373627259468016 -2.5105452689847807 3.590458285197282 54.594195887991155 -6.484386148043662 2.633270517453084 4.615370028714009 9.42920828085425 3.9912371604325747 8.201368242115791 0 0 0 0 0 0 0 0 0 0 0 0 0 0 0 0 0 0 0 0 0 0 0 0 0 0 0 0 0 0 0 0 0 0 0 0 0 0 0 0 0 0 0 0 0
5.366740723532839 0.04272670763057052 3.1771584625153393 0 19.54702199216114 0 -8.721910532946543 -27.516788856927963 4.915408568758919 2.591005447242166 7.474356426818326 -6.337317652782258 18.804991842683727 -2.7605456645677684 -7.878295897099109 0 0 0 -11.704572449640137 -19.6958214181608 7.725013881208017 0.04752923941574297 -4.4696966154039 -0.7015694393534856 -18.384365478472173 -0.9684554144841959 7.816486439366595 0 0 0 -0.07549181798324192 6.051442408136882 -0.5543488946364354 -0.8166247792397341 -16.70959490049902 -0.45475245359670013 0 0 0 13.37621778438741 22.563101703109993 -18.491893404849122 2.6082858825620687 3.483635531896901 -60.084402130084015 6.612611669807849 2.636218085255006 -6.9563274083499955 -10.369551528377324 4.522119545334957 -6.682725846988044 0 0 0 0 0 0 0 0 0 0 0 0 0 0 0 0 0 0 0 0 0 0 0 0 0 0 0 0 0 0 0 0 0 0 0 0 0 0 0 0 0 0 0 0 0 -0.003559398899778713 19.06684124775013 19.99771517852582 -0.0026963314440848615 8.193435108214448 -10.002840111254587 0 0 0 0 0 0 0 0 0 -14.041716572022507 21.66483011804997 24.27524061672954 -2.513312936855877 3.58046921798294 54.806781472539434 -6.484386148043662 2.633270517453084 4.615370028714009 9.245314477542586 3.9492160296439436 8.081885640881023 0 0 0 0 0 0 0 0 0 0 0 0 0 0 0 0 0 0 0 0 0 0 0 0 0 0 0 0 0 0 0 0 0 0 0 0 0 0 0 0 0 0 0 0 0
5.366740723532839 0.04272670763057052 3.1771584625153393 0 19.071000241106486 0 -8.697329158982352 -26.961834443328378 4.803401496313956 2.591005447242166 7.474356426818326 -6.337317652782258 18.804991842683727 -2.7605456645677684 -7.878295897099109 0 0 0 -11.634585941229927 -19.207247951618804 7.605102207287704 0.04752923941574297 -4.4696966154039 -0.7015694393534856 -18.384365478472173 -0.9684554144841959 7.816486439366595 0 0 0 -0.07549181798324192 6.051442408136882 -0.5543488946364354 -0.8144963663933291 -16.183289472453207 -0.46251066624839693 0 0 0 13.2433822711579 22.309065957535775 -18.396283607630142 2.606877710423982 3.470340214228235 -60.27684021910642 6.612611669807849 2.636218085255006 -6.9563274083499955 -10.181573888480843 4.457286088122505 -6.577931713916376 0 0 0 0 0 0 0 0 0 0 0 0 0 0 0 0 0 0 0 0 0 0 0 0 0 0 0 0 0 0 0 0 0 0 0 0 0 0 0 0 0 0 0 0 0 -0.003530582072686125 18.451155874454916 19.997762385315955 -0.0026551797530639893 7.515368636671181 -10.002788033187834 0 0 0 0 0 0 0 0 0 -13.915212318769445 21.391037108697805 24.17638669281478 -2.5161187246818626 3.570490524947404 55.01936161719037 -6.484386148043662 2.633270517453084 4.615370028714009 9.06152405197932 3.906815784162597 7.9625510147383 0 0 0 0 0 0 0 0 0 0 0 0 0 0 0 0 0 0 0 0 0 0 0 0 0 0 0 0 0 0 0 0 0 0 0 0 0 0 0 0 0 0 0 0 0
5.366740723532839 0.04272670763057052 3.1771584625153393 0 18.595030301801476 0 -8.674083657203854 -26.40692241322474 4.6922219159613245 2.591005447242166 7.474356426818326 -6.337317652782258 18.804991842683727 -2.7605456645677684 -7.878295897099109 0 0 0 -11.565888654516302 -18.718596372557016 7.486184967202167 0.04752923941574297 -4.4696966154039 -0.7015694393534856 -18.384365478472173 -0.9684554144841959 7.816486439366595 0 0 0 -0.07549181798324192 6.051442408136882 -0.5543488946364354 -0.8124470422616068 -15.657035646811613 -0.4702273597469373 0 0 0 13.110337719845319 22.055246493413357 -18.300211318590172 2.6055148635257175 3.4570380271758583 -60.469255519870984 6.612611669807849 2.636218085255006 -6.9563274083499955 -9.993738899219869 4.392113264889779 -6.473362866162197 0 0 0 0 0 0 0 0 0 0 0 0 0 0 0 0 0 0 0 0 0 0 0 0 0 0 0 0 0 0 0 0 0 0 0 0 0 0 0 0 0 0 0 0 0 -0.003503363676497937 17.835413587264966 19.997806492370643 -0.002614527440352553 6.837230187098965 -10.002739526576427 0 0 0 0 0 0 0 0 0 -13.788440085188673 21.117468261157935 24.07708283932213 -2.518961135915148 3.560523702442766 55.23194122263819 -6.484386148043662 2.633270517453084 4.615370028714009 8.877833410045334 3.8640330356799075 7.843357963553638 0 0 0 0 0 0 0 0 0 0 0 0 0 0 0 0 0 0 0 0 0 0 0 0 0 0 0 0 0 0 0 0 0 0 0 0 0 0 0 0 0 0 0 0 0
5.366740723532839 0.04272670763057052 3.1771584625153393 0 18.119131128144257 0 -8.652146355368545 -25.8520744738632 4.58183721922042 2.591005447242166 7.474356426818326 -6.337317652782258 18.804991842683727 -2.7605456645677684 -7.878295897099109 0 0 0 -11.49846926275454 -18.229889503782744 7.368242076234528 0.04752923941574297 -4.4696966154039 -0.7015694393534856 -18.384365478472173 -0.9684554144841959 7.816486439366595 0 0 0 -0.07549181798324192 6.051442408136882 -0.5543488946364354 -0.8104780151860127 -15.130880775193912 -0.4779030510778843 0 0 0 12.977079471984093 21.801650047740083 -18.203685469958625 2.604195883968905 3.443733674562017 -60.661677619463184 6.612611669807849 2.636218085255006 -6.9563274083499955 -9.806043783388633 4.3266006528117495 -6.369020337554941 0 0 0 0 0 0 0 0 0 0 0 0 0 0 0 0 0 0 0 0 0 0 0 0 0 0 0 0 0 0 0 0 0 0 0 0 0 0 0 0 0 0 0 0 0 -0.003475751813072422 17.219660435421773 19.99785259783823 -0.002574355929822147 6.159067402109387 -10.002686544513937 0 0 0 0 0 0 0 0 0 -13.661404808221159 20.844119764681736 23.977319379380667 -2.5218411747604685 3.5505672528041576 55.44451174841918 -6.484386148043662 2.633270517453084 4.615370028714009 8.694247262384874 3.820869957720227 7.7243142910123535 0 0 0 0 0 0 0 0 0 0 0 0 0 0 0 0 0 0 0 0 0 0 0 0 0 0 0 0 0 0 0 0 0 0 0 0 0 0 0 0 0 0 0 0 0
5.366740723532839 0.04272670763057052 3.1771584625153393 0 17.64330885843573 0 -8.63149898349008 -25.29732870477038 4.472227962733712 2.591005447242166 7.474356426818326 -6.337317652782258 18.804991842683727 -2.7605456645677684 -7.878295897099109 0 0 0 -11.432301879853227 -17.74114440123943 7.251251271359755 0.04752923941574297 -4.4696966154039 -0.7015694393534856 -18.384365478472173 -0.9684554144841959 7.816486439366595 0 0 0 -0.07549181798324192 6.051442408136882 -0.5543488946364354 -0.8085862839214525 -14.604829310872839 -0.48554077669495516 0 0 0 12.843606654442556 21.5482796559249 -18.106699759954527 2.602922439292168 3.4304260866275844 -60.85409828535611 6.612611669807849 2.636218085255006 -6.9563274083499955 -9.61849385249453 4.260751251576272 -6.2649089894577745 0 0 0 0 0 0 0 0 0 0 0 0 0 0 0 0 0 0 0 0 0 0 0 0 0 0 0 0 0 0 0 0 0 0 0 0 0 0 0 0 0 0 0 0 0 -0.0034497041944235416 16.603918419825973 19.997899181998157 -0.0025346472547885324 5.480929215103822 -10.002635689770099 0 0 0 0 0 0 0 0 0 -13.534097177246426 20.571002446779982 23.877087597230236 -2.5247564028785994 3.5406201061369447 55.65705907184918 -6.484386148043662 2.633270517453084 4.615370028714009 8.510768506856069 3.7773287225943077 7.605421193507473 0 0 0 0 0 0 0 0 0 0 0 0 0 0 0 0 0 0 0 0 0 0 0 0 0 0 0 0 0 0 0 0 0 0 0 0 0 0 0 0 0 0 0 0 0
